<?xml version="1.0" encoding="UTF-8"?>
<svg width="128pt" height="128pt" version="1.1" viewBox="0 0 128 128" xmlns="http://www.w3.org/2000/svg">
 <g>
  <path d="m121.6 101.12h-13.285l1.3984-9.2383c2.7109-2.1328 4.207-5.543 4.207-9.9609 0-0.53125-0.42969-0.96094-0.96094-0.96094h-1.3438l-0.89844-13.492c-0.011719-0.24219-0.11328-0.94141-0.83594-1.6719-1.3906-1.4023-4.2344-2.1172-8.4453-2.1172-8.6484 0-9.2539 3.082-9.2773 3.7969l-0.89844 13.484h-1.3398c-0.53125 0-0.96094 0.42969-0.96094 0.96094 0 4.418 1.4922 7.832 4.2031 9.9609l1.3984 9.2383h-88.164c-0.53125 0-0.96094 0.42969-0.96094 0.96094 0.003906 0.52734 0.43359 0.95703 0.96094 0.95703h115.2c0.53125 0 0.96094-0.42969 0.96094-0.96094 0-0.52734-0.42969-0.95703-0.95703-0.95703zm-27.523-33.535c0-0.019532 0.003906-0.035157 0.003906-0.054688s0.67969-1.9297 7.3594-1.9297c6.6445 0 7.3242 1.8516 7.3594 1.9766v0.007813l0.89062 13.375h-16.504zm-3.168 15.293h21.059c-0.22656 3.4961-1.8633 9.6016-10.527 9.6016-8.668 0-10.305-6.1055-10.531-9.6016zm4.3906 10.301c1.7344 0.79687 3.793 1.2227 6.1367 1.2227s4.4023-0.42188 6.1367-1.2227l-1.1992 7.9414h-9.8711z"/>
  <path d="m12.16 81.441h5.0742l-0.26562 1.7812c-0.046875 0.30859 0.0625 0.62109 0.28906 0.83594 0.17969 0.17188 0.41797 0.26562 0.66016 0.26562 0.0625 0 0.125-0.007813 0.1875-0.019531l14.398-2.8789c0.50781-0.10156 0.84375-0.58984 0.75781-1.0977l-5.7617-34.559c-0.003906-0.027343-0.007812-0.050781-0.015625-0.074219-0.80078-3.207-2.7148-5.0469-5.25-5.0469-2.6055 0-4.6211 1.9492-5.2617 5.0898-0.003906 0.011719-0.003906 0.023438-0.007812 0.035157l-5.7617 34.559c-0.046875 0.27734 0.03125 0.5625 0.21484 0.77734 0.19141 0.20703 0.46094 0.33203 0.74219 0.33203zm6.7031-35.348c0.17578-0.85156 0.92969-3.5352 3.375-3.5352 2.043 0 2.9648 1.9258 3.3789 3.5547l5.6016 33.605-12.152 2.4297 2.3594-15.93c0.078125-0.52344-0.28516-1.0117-0.80859-1.0898-0.046876-0.007812-0.09375-0.011718-0.14063-0.011718-0.46875 0-0.87891 0.34375-0.94922 0.82031l-2.0117 13.578h-4.2266z"/>
  <path d="m40.961 54.078h40.32c0.53125 0 0.96094-0.42969 0.96094-0.96094l-0.003907-28.797c0-0.53125-0.42969-0.96094-0.96094-0.96094h-40.316c-0.53125 0-0.96094 0.42969-0.96094 0.96094v28.801c0 0.52734 0.42969 0.95703 0.96094 0.95703zm0.96094-28.797h38.398v26.879h-38.398z"/>
  <path d="m64.68 32.281c-0.375-0.375-0.98438-0.375-1.3594 0l-11.52 11.52c-0.375 0.375-0.375 0.98438 0 1.3594 0.1875 0.1875 0.43359 0.28125 0.67969 0.28125 0.24609 0 0.49219-0.09375 0.67969-0.28125l11.52-11.52c0.375-0.37891 0.375-0.98438 0-1.3594z"/>
  <path d="m69.082 35.16-5.7617 5.7617c-0.375 0.375-0.375 0.98438 0 1.3594 0.1875 0.1875 0.43359 0.28125 0.67969 0.28125s0.49219-0.09375 0.67969-0.28125l5.7617-5.7617c0.375-0.375 0.375-0.98438 0-1.3594-0.37891-0.375-0.98438-0.375-1.3594 0z"/>
  <path d="m40.961 94.398h40.32c0.53125 0 0.96094-0.42969 0.96094-0.96094l-0.003907-28.797c0-0.53125-0.42969-0.96094-0.96094-0.96094h-19.199v-4.8008c0-0.53125-0.42969-0.96094-0.96094-0.96094-0.52734 0.003906-0.95703 0.43359-0.95703 0.96094v4.8008h-19.199c-0.53125 0-0.96094 0.42969-0.96094 0.96094v28.801c0 0.52734 0.42969 0.95703 0.96094 0.95703zm0.96094-20.16h18.238v18.238l-18.238 0.003907zm20.156 18.242v-18.242h18.238v18.238zm18.242-26.879v6.7188h-38.398v-6.7188z"/>
  <path d="m66.203 78.363c-0.17969 0.17969-0.28125 0.42578-0.28125 0.67969 0 0.25391 0.10156 0.5 0.28125 0.67969 0.17969 0.17969 0.42578 0.28125 0.67969 0.28125 0.25391 0 0.5-0.10156 0.67969-0.28125 0.17578-0.18359 0.27734-0.42969 0.27734-0.68359 0-0.25391-0.10156-0.5-0.28125-0.67969-0.35938-0.35938-1-0.35547-1.3555 0.003906z"/>
  <path d="m56.039 78.363c-0.35547-0.35938-1-0.35938-1.3555 0-0.17969 0.17969-0.28125 0.42578-0.28125 0.67969 0 0.25391 0.10156 0.5 0.28125 0.67969 0.17969 0.17969 0.42578 0.28125 0.67969 0.28125 0.25391 0 0.5-0.10156 0.67969-0.28125 0.17578-0.18359 0.27734-0.42969 0.27734-0.68359 0-0.25-0.10156-0.5-0.28125-0.67578z"/>
  <path d="m93.43 41.715c0.10156 0.44531 0.49609 0.75 0.9375 0.75 0.066406 0 0.13281-0.007813 0.19922-0.023438l0.23438 1.0781h-0.40234c-0.27734 0-0.54688 0.12109-0.72656 0.33203-0.18359 0.21094-0.26172 0.49219-0.22266 0.76953l1.2812 8.6406c0.070312 0.47266 0.47266 0.82031 0.94922 0.82031h3.8398c0.47656 0 0.87891-0.34766 0.94922-0.82031l1.2812-8.6406c0.039062-0.27734-0.039062-0.55859-0.22266-0.76953-0.18359-0.21094-0.44922-0.33203-0.72656-0.33203h-0.48828l0.63281-4.2695c0.027344 0.007812 0.054688 0.015625 0.082032 0.019531 0.046875 0.007813 0.09375 0.011719 0.14062 0.011719 0.46875 0 0.87891-0.34375 0.94922-0.82031l0.27344-1.8398c0.078125-0.52344-0.28516-1.0117-0.80859-1.0898-0.066406-0.007812-0.13281-0.011719-0.19922-0.007812-0.11328-0.32422-0.39844-0.57813-0.76172-0.63281-0.51953-0.078125-1.0117 0.28516-1.0898 0.80859l-1.1602 7.8203h-1.6016l-1.1133-5.0078c-0.11328-0.51562-0.62891-0.84375-1.1445-0.73047-0.45703 0.10156-0.76172 0.50781-0.75391 0.96094h-0.007812c-0.51953 0.11328-0.84375 0.62891-0.73047 1.1445zm5.2617 10.445h-2.1836l-0.99609-6.7188h3.6836 0.003907 0.48438z"/>
 </g>
</svg>
