<?xml version="1.0" encoding="UTF-8"?>
<svg width="128pt" height="128pt" version="1.1" viewBox="0 0 128 128" xmlns="http://www.w3.org/2000/svg">
 <path d="m114.78 74.227v-1.3711c0-3.6602-1.4961-6.9766-3.9023-9.3711v-26.52c0-3.6094-3.1484-6.5391-7.0273-6.5391h-79.695c-3.8789 0-7.0273 2.9297-7.0273 6.5391v26.508c-2.4062 2.3945-3.9023 5.7227-3.9023 9.3711v1.3711c-2.0078 0.089844-3.6211 1.7656-3.6211 3.8008v10.648c0 2.0977 1.7031 3.8008 3.8008 3.8008h4.8398v3.0586c0 1.1133 0.91016 2.0234 2.0234 2.0234h4.8125c1.1133 0 2.0234-0.91016 2.0234-2.0234v-3.0586h73.793v3.0586c0 1.1133 0.91016 2.0234 2.0234 2.0234h4.8125c1.1133 0 2.0234-0.91016 2.0234-2.0234v-3.0586h4.8398c2.0977 0 3.8008-1.7031 3.8008-3.8008v-10.648c0.003907-2.0234-1.6055-3.6992-3.6172-3.7891zm-95.477-37.262c0-2.4062 2.1758-4.3633 4.8516-4.3633h79.707c2.6758 0 4.8516 1.957 4.8516 4.3633v24.754c-2.0625-1.332-4.5195-2.1133-7.1562-2.1133h-3.6094c-0.52344-3.4961-3.5703-6.1953-7.2305-6.1953l-17.844 0.003906c-3.6602 0-6.6953 2.6875-7.2305 6.1953h-3.2773c-0.52344-3.4961-3.5703-6.1953-7.2305-6.1953h-17.832c-3.6602 0-6.6953 2.6875-7.2305 6.1953h-3.6094c-2.6367 0-5.0938 0.78125-7.1562 2.1133zm76.418 22.656h-27.867c0.5-2.293 2.5586-4.0195 5.0195-4.0195h17.832c2.457 0 4.5156 1.7305 5.0156 4.0195zm-35.57 0h-27.867c0.5-2.293 2.5586-4.0195 5.0195-4.0195h17.832c2.4531 0 4.5156 1.7305 5.0156 4.0195zm-44.75 13.238c0-6.0938 4.9648-11.059 11.059-11.059h75.086c6.0938 0 11.059 4.9648 11.059 11.059v1.3711l-97.203-0.003907zm9.5234 22.527h-4.5039v-2.9062h4.5039zm82.664 0h-4.5039v-2.9062h4.5039zm8.6367-6.707c0 0.89453-0.73047 1.625-1.625 1.625h-101.2c-0.89453 0-1.625-0.73047-1.625-1.625v-10.648c0-0.89453 0.73047-1.625 1.625-1.625h101.2c0.89453 0 1.625 0.73047 1.625 1.625z"/>
</svg>
