<?xml version="1.0" encoding="UTF-8"?>
<svg width="128pt" height="128pt" version="1.1" viewBox="0 0 128 128" xmlns="http://www.w3.org/2000/svg">
 <g>
  <path d="m86.656 73.152c0.30859 0 0.59766-0.19141 0.71094-0.49609l3.7305-10.246c0.14453-0.39062-0.058594-0.82812-0.44922-0.96875-0.39453-0.14062-0.82813 0.058594-0.96875 0.45312l-3.7305 10.246c-0.14453 0.39062 0.058593 0.82812 0.44922 0.96875 0.085937 0.03125 0.17187 0.042969 0.25781 0.042969z"/>
  <path d="m86.656 73.152c0.30859 0 0.59766-0.19141 0.71094-0.49609 0.14453-0.39062-0.058594-0.82812-0.44922-0.96875l-5.6836-2.0664c-0.39062-0.14062-0.82422 0.058594-0.96875 0.45312-0.14453 0.39062 0.058594 0.82812 0.44922 0.96875l5.6836 2.0664c0.085937 0.03125 0.17187 0.042969 0.25781 0.042969z"/>
  <path d="m76.582 74.312c0.30859 0 0.59766-0.19141 0.71094-0.49609 0.14453-0.39062-0.058594-0.82812-0.45312-0.96875l-41.195-14.992c-0.39453-0.14062-0.82812 0.058593-0.96875 0.45312-0.14453 0.39062 0.058594 0.82812 0.44922 0.96875l41.199 14.992c0.085937 0.03125 0.17578 0.042969 0.25781 0.042969z"/>
  <path d="m80.457 72.508c0.30859 0 0.59766-0.19141 0.71094-0.49609l2.8945-7.9531c0.14453-0.39062-0.058594-0.82812-0.44922-0.96875-0.39062-0.14453-0.82812 0.058594-0.96875 0.44922l-2.8945 7.9531c-0.14453 0.39062 0.058594 0.82422 0.44922 0.96875 0.085937 0.03125 0.17578 0.046874 0.25781 0.046874z"/>
  <path d="m77.621 74.5c0.54688 0 1.0859-0.12109 1.5938-0.35547 0.91406-0.42578 1.6094-1.1836 1.9531-2.1328 0.14453-0.39453-0.058594-0.82812-0.45312-0.96875-0.39062-0.14062-0.82422 0.058593-0.96875 0.45312-0.20703 0.57031-0.625 1.0234-1.1719 1.2773-0.55078 0.25781-1.1641 0.28516-1.7344 0.078124-0.39062-0.14453-0.82812 0.058594-0.96875 0.44922-0.14453 0.39062 0.058594 0.82812 0.44922 0.96875 0.42578 0.15234 0.86328 0.23047 1.3008 0.23047z"/>
  <path d="m79.051 65.562c0.058594 0 0.11328-0.007812 0.17188-0.019531l16.133-3.7773c0.40625-0.097656 0.65625-0.5 0.5625-0.91016-0.097657-0.40625-0.49609-0.65625-0.90625-0.5625l-16.133 3.7773c-0.40625 0.097657-0.65625 0.5-0.5625 0.90625 0.082032 0.35156 0.39062 0.58594 0.73438 0.58594z"/>
  <path d="m95.184 61.781c0.30859 0 0.59766-0.19141 0.71094-0.49609l2.0664-5.6797c0.14062-0.39453-0.058594-0.82812-0.45313-0.96875-0.39062-0.14062-0.82812 0.058593-0.96875 0.45312l-2.0664 5.6797c-0.14062 0.39062 0.058594 0.82812 0.45312 0.96875 0.085938 0.03125 0.17188 0.042969 0.25781 0.042969z"/>
  <path d="m97.25 56.102c0.30859 0 0.59766-0.19141 0.71094-0.49609 0.14062-0.39453-0.058594-0.82812-0.45313-0.96875l-59.273-21.574c-0.39062-0.14453-0.82812 0.058594-0.96875 0.44922s0.058594 0.82812 0.45312 0.96875l59.273 21.574c0.085937 0.03125 0.17187 0.046874 0.25781 0.046874z"/>
  <path d="m58.016 78.684c0.30859 0 0.59766-0.19141 0.71094-0.49609l3.5781-9.8281c0.14062-0.39062-0.058594-0.82422-0.45313-0.96875-0.39453-0.14062-0.82812 0.058594-0.96875 0.44922l-3.5742 9.8281c-0.14453 0.39453 0.058594 0.82812 0.44922 0.96875 0.082032 0.03125 0.17188 0.046875 0.25781 0.046875z"/>
  <path d="m63.695 80.75c0.30859 0 0.59766-0.19141 0.71094-0.49609l3.5742-9.8281c0.14453-0.39062-0.058594-0.82812-0.44922-0.96875s-0.82812 0.058594-0.96875 0.45312l-3.5742 9.8281c-0.14453 0.39062 0.058594 0.82812 0.45312 0.96875 0.082032 0.03125 0.16797 0.042969 0.25391 0.042969z"/>
  <path d="m33.844 45.891c0.30859 0 0.59766-0.19141 0.71094-0.49609l4.1367-11.363c0.14453-0.39062-0.058594-0.82812-0.44922-0.96875-0.39063-0.14453-0.82813 0.058594-0.96875 0.44922l-4.1367 11.363c-0.14453 0.39062 0.058593 0.82812 0.44922 0.96875 0.082031 0.03125 0.17187 0.046875 0.25781 0.046875z"/>
  <path d="m79.051 65.562c0.30859 0 0.59766-0.19141 0.71094-0.49609 0.14062-0.39062-0.058594-0.82422-0.45312-0.96875l-43.402-15.797c-0.39453-0.14062-0.82812 0.058594-0.96875 0.44922s0.058594 0.82812 0.45312 0.96875l43.402 15.797c0.085937 0.03125 0.17578 0.046875 0.25781 0.046875z"/>
  <path d="m35.648 49.766c0.30859 0 0.59766-0.19141 0.71094-0.49609 0.14453-0.39062-0.058594-0.82812-0.44922-0.96875-0.57031-0.20703-1.0234-0.625-1.2812-1.1719-0.25391-0.55078-0.28516-1.1641-0.074218-1.7344 0.14062-0.39062-0.058594-0.82812-0.45313-0.96875-0.39062-0.14062-0.82812 0.058594-0.96875 0.44922-0.34375 0.94922-0.30078 1.9727 0.125 2.8906 0.42578 0.91406 1.1836 1.6094 2.1328 1.9531 0.085937 0.03125 0.17188 0.046875 0.25781 0.046875z"/>
  <path d="m35.387 59.32c0.30859 0 0.59766-0.19141 0.71094-0.49609 0.14453-0.39062-0.058594-0.82812-0.44922-0.96875-0.57031-0.20703-1.0234-0.625-1.2812-1.1719-0.25391-0.55078-0.28516-1.1641-0.074219-1.7344 0.14453-0.39062-0.058594-0.82812-0.45312-0.96875-0.39062-0.14062-0.82422 0.058593-0.96875 0.45312-0.34375 0.94922-0.30078 1.9727 0.125 2.8906 0.42578 0.91406 1.1836 1.6094 2.1328 1.9531 0.085938 0.027344 0.17188 0.042968 0.25781 0.042968z"/>
  <path d="m33.582 55.445c0.30859 0 0.59766-0.19141 0.71094-0.49609l2.0664-5.6836c0.14453-0.39062-0.058594-0.82812-0.44922-0.96875-0.39453-0.14062-0.82812 0.058594-0.96875 0.44922l-2.0664 5.6836c-0.14453 0.39062 0.058594 0.82812 0.44922 0.96875 0.082031 0.03125 0.17188 0.046874 0.25781 0.046874z"/>
  <path d="m36.793 85.914h19.527c0.41797 0 0.75391-0.33594 0.75391-0.75391 0-0.41797-0.33594-0.75391-0.75391-0.75391h-19.527c-0.41797 0-0.75391 0.33594-0.75391 0.75391 0 0.41797 0.33594 0.75391 0.75391 0.75391z"/>
  <path d="m36.793 79.871h19.527c0.41797 0 0.75391-0.33984 0.75391-0.75391 0-0.41797-0.33594-0.75391-0.75391-0.75391l-19.527-0.003906c-0.41797 0-0.75391 0.33984-0.75391 0.75391 0 0.41797 0.33594 0.75781 0.75391 0.75781z"/>
  <path d="m59.699 87.277c2.6289 0 5.2891-1.7656 5.2891-5.1445 0-3.375-2.6602-5.1406-5.2891-5.1406-2.6289 0-5.2891 1.7656-5.2891 5.1406 0 3.3789 2.6602 5.1445 5.2891 5.1445zm0-8.7695c1.8203 0 3.7773 1.1367 3.7773 3.6289 0 2.4922-1.957 3.6289-3.7773 3.6289-1.8203 0-3.7773-1.1367-3.7773-3.6289 0-2.4922 1.957-3.6289 3.7773-3.6289z"/>
  <path d="m30.75 94.984h6.0469c0.41797 0 0.75391-0.33984 0.75391-0.75391v-24.184c0-0.41797-0.33984-0.75391-0.75391-0.75391h-6.0469c-0.41797 0-0.75391 0.33594-0.75391 0.75391l-0.003906 24.184c0 0.41797 0.33984 0.75391 0.75781 0.75391zm5.2891-1.5117h-4.5352v-22.672h4.5352z"/>
 </g>
</svg>
