<?xml version="1.0" encoding="UTF-8"?>
<svg width="128pt" height="128pt" version="1.1" viewBox="0 0 128 128" xmlns="http://www.w3.org/2000/svg">
 <g>
  <path d="m90 36.82 29.422-29.398c0.78125-0.78125 0.78125-2.0391 0-2.8203s-2.0391-0.78125-2.8203 0l-29.422 29.422-46.359-0.003907-29.398-29.441c-0.78125-0.78125-2.0391-0.78125-2.8203 0s-0.78125 2.0391 0 2.8203l29.422 29.422v58.34l-25.422 25.422c-0.78125 0.78125-0.78125 2.0391 0 2.8203 0.39844 0.39844 0.89844 0.57812 1.4219 0.57812 0.51953 0 1.0195-0.19922 1.4219-0.57812l25.422-25.422h46.34l25.422 25.422c0.39844 0.39844 0.89844 0.57812 1.4219 0.57812 0.51953 0 1.0195-0.19922 1.4219-0.57812 0.78125-0.78125 0.78125-2.0391 0-2.8203l-3.4219-3.4219-0.011719-77.16c0-0.78125-0.46094-1.5-1.1602-1.8203-0.71875-0.32031-1.5391-0.21875-2.1406 0.30078l-14 12c-0.44141 0.37891-0.69922 0.94141-0.69922 1.5195v47.18l-4-4v-58.359zm-48 1.1797h44v56h-8v-44c0-1.1016-0.89844-2-2-2h-24c-1.1016 0-2 0.89844-2 2v44h-8zm12 56v-42h20v42zm44-41.078 10-8.5781v68.836l-10-10z"/>
  <path d="m72 74c0 2.668-4 2.668-4 0s4-2.668 4 0"/>
  <path d="m13.219 113.9c0.5 0 0.98047-0.17969 1.3594-0.51953l16.961-15.641c0.42188-0.37891 0.64063-0.92188 0.64063-1.4805v-9.9414c0-0.69922-0.35938-1.3398-0.96094-1.6992-0.60156-0.35938-1.3398-0.37891-1.9609-0.078126l-16.961 8.7188c-0.66016 0.33984-1.0781 1.0195-1.0781 1.7812v16.859c0 0.80078 0.48047 1.5195 1.1992 1.8398 0.26172 0.12109 0.53906 0.16016 0.80078 0.16016zm2-17.641 12.961-6.6602v5.7812l-12.961 11.961z"/>
  <path d="m64 24c3.3008 0 6-2.6992 6-6 0-2.6016-1.6797-4.8008-4-5.6406v-4.3594c0-1.1016-0.89844-2-2-2s-2 0.89844-2 2v4.3594c-2.3203 0.82031-4 3.0195-4 5.6406 0 3.3008 2.6992 6 6 6zm0-8c1.1016 0 2 0.89844 2 2s-0.89844 2-2 2-2-0.89844-2-2 0.89844-2 2-2z"/>
 </g>
</svg>
