<?xml version="1.0" encoding="UTF-8"?>
<svg width="128pt" height="128pt" version="1.1" viewBox="0 0 128 128" xmlns="http://www.w3.org/2000/svg">
 <g>
  <path d="m112.98 65.648h-97.969c-0.46484 0-0.84375 0.375-0.84375 0.84375v39.578c0 0.46484 0.37891 0.84375 0.84375 0.84375h97.965c0.46484 0 0.84375-0.375 0.84375-0.84375v-39.578c0-0.46484-0.375-0.84375-0.83984-0.84375zm-27.512 1.6836v37.895l-25.824 0.003907v-37.895zm-69.613 0h42.105v37.895h-42.105zm96.281 37.898h-24.984v-37.895h24.984z"/>
  <path d="m16.703 43.402h94.598c0.46484 0 0.84375-0.375 0.84375-0.84375l-0.003906-20.629c0-0.46484-0.37891-0.84375-0.84375-0.84375h-94.594c-0.46484 0-0.84375 0.375-0.84375 0.84375v20.633c0 0.46484 0.37891 0.83984 0.84375 0.83984zm47.789-1.6836h-23.367l-0.003906-18.949h23.367zm1.6836-18.949h22.738v18.949h-22.738zm44.281 18.949h-19.859v-18.949h19.859zm-92.914-18.949h21.895v18.949h-21.895z"/>
  <path d="m36.352 28.738c-0.46484 0-0.84375 0.375-0.84375 0.84375v5.4727c0 0.46484 0.37891 0.84375 0.84375 0.84375 0.46484 0 0.84375-0.375 0.84375-0.84375v-5.4727c-0.003906-0.46875-0.37891-0.84375-0.84375-0.84375z"/>
  <path d="m43.367 35.895c0.46484 0 0.84375-0.375 0.84375-0.84375v-5.4727c0-0.46484-0.37891-0.84375-0.84375-0.84375-0.46484 0-0.84375 0.375-0.84375 0.84375v5.4727c0.003906 0.46875 0.37891 0.84375 0.84375 0.84375z"/>
  <path d="m86.316 28.738c-0.46484 0-0.84375 0.375-0.84375 0.84375v5.4727c0 0.46484 0.37891 0.84375 0.84375 0.84375s0.84375-0.375 0.84375-0.84375v-5.4727c-0.003906-0.46875-0.37891-0.84375-0.84375-0.84375z"/>
  <path d="m93.191 35.895c0.46484 0 0.84375-0.375 0.84375-0.84375v-5.4727c0-0.46484-0.37891-0.84375-0.84375-0.84375s-0.84375 0.375-0.84375 0.84375v5.4727c0.003906 0.46875 0.37891 0.84375 0.84375 0.84375z"/>
  <path d="m49.305 79.375h-24.211c-0.46484 0-0.84375 0.375-0.84375 0.84375v22.738c0 0.46484 0.37891 0.84375 0.84375 0.84375h24.211c0.46484 0 0.84375-0.375 0.84375-0.84375v-22.738c0-0.46484-0.37891-0.84375-0.84375-0.84375zm-0.83984 22.738h-22.527v-21.051h22.527z"/>
  <path d="m50.254 73.625h-26.105c-0.46484 0-0.84375 0.375-0.84375 0.84375v2.5234c0 0.46484 0.37891 0.84375 0.84375 0.84375h26.105c0.46484 0 0.84375-0.375 0.84375-0.84375l-0.003906-2.5234c0-0.46875-0.375-0.84375-0.83984-0.84375zm-0.84375 2.5234h-24.422l0.003907-0.83984h24.422z"/>
  <path d="m31.059 72.57h13.051c0.46484 0 0.84375-0.375 0.84375-0.84375v-2.7383c0-0.46484-0.37891-0.84375-0.84375-0.84375h-13.051c-0.46484 0-0.84375 0.375-0.84375 0.84375v2.7383c0.003906 0.46875 0.37891 0.84375 0.84375 0.84375zm0.84375-2.7344h11.367v1.0508h-11.367z"/>
  <path d="m25.871 72.949c1.4141 0 2.5625-1.1602 2.5625-2.5859s-1.1484-2.5859-2.5625-2.5859c-1.4141 0-2.5625 1.1602-2.5625 2.5859-0.003906 1.4258 1.1484 2.5859 2.5625 2.5859zm0-3.4922c0.48438 0 0.87891 0.40625 0.87891 0.90234s-0.39453 0.90234-0.87891 0.90234-0.87891-0.40625-0.87891-0.90234 0.39453-0.90234 0.87891-0.90234z"/>
  <path d="m48.531 72.949c1.4141 0 2.5625-1.1602 2.5625-2.5859s-1.1484-2.5859-2.5625-2.5859-2.5625 1.1602-2.5625 2.5859 1.1484 2.5859 2.5625 2.5859zm0-3.4922c0.48438 0 0.87891 0.40625 0.87891 0.90234s-0.39453 0.90234-0.87891 0.90234-0.87891-0.40625-0.87891-0.90234 0.39453-0.90234 0.87891-0.90234z"/>
  <path d="m28.043 88.852c0.21484 0 0.42969-0.082031 0.59375-0.24609l4.4922-4.4922c0.32812-0.32812 0.32812-0.86328 0-1.1914s-0.86328-0.32812-1.1914 0l-4.4922 4.4922c-0.32812 0.32813-0.32812 0.86328 0 1.1914 0.16797 0.16406 0.38281 0.24609 0.59766 0.24609z"/>
  <path d="m29.707 93.672c0.16406 0.15625 0.37109 0.23047 0.58203 0.23047 0.22266 0 0.44531-0.085938 0.60938-0.26172l7.6836-8.0703c0.32031-0.33594 0.30859-0.87109-0.03125-1.1914-0.33594-0.31641-0.87109-0.30469-1.1914 0.03125l-7.6836 8.0703c-0.31641 0.33984-0.30469 0.87109 0.03125 1.1914z"/>
  <path d="m80.984 90.176c0.46484 0 0.84375-0.375 0.84375-0.84375v-5.5078c0-0.46484-0.37891-0.84375-0.84375-0.84375s-0.84375 0.375-0.84375 0.84375v5.5078c0 0.46484 0.37891 0.84375 0.84375 0.84375z"/>
  <path d="m91.508 90.176c0.46484 0 0.84375-0.375 0.84375-0.84375v-5.5078c0-0.46484-0.37891-0.84375-0.84375-0.84375-0.46484 0-0.84375 0.375-0.84375 0.84375v5.5078c0.003907 0.46484 0.37891 0.84375 0.84375 0.84375z"/>
 </g>
</svg>
