<?xml version="1.0" encoding="UTF-8"?>
<svg width="128pt" height="128pt" version="1.1" viewBox="0 0 128 128" xmlns="http://www.w3.org/2000/svg">
 <path d="m63.207 31.754v5.6445c-2.8828 0-5.2773-0.007813-7.4336 0-0.35938 0.082031-0.64063 0.4375-0.62891 0.80469 0 2.7852 0.12109 5.9141 0 9.1172-9.5273 3.2617-17.656 8.2188-21.719 17.961-0.21875 0.49609 0.21484 1.1445 0.75391 1.1328h20.988c0.11328 3.3398 0.91406 5.8906 2.3672 7.6562 1.5703 1.9062 3.8789 2.8203 6.4766 2.8203 2.5977 0 4.9023-0.91406 6.4766-2.8203 1.457-1.7656 2.2578-4.3164 2.3672-7.6562h20.988c0.53125-0.007812 0.94531-0.64844 0.73047-1.1328-4.0586-9.7422-12.164-14.699-21.691-17.961v-9.1172c0-0.42188-0.38281-0.80469-0.80469-0.80469h-7.2578v-5.6445zm-6.4492 7.2539c6.3008-0.015624 10.805 0 14.512 0v8.8672c0.003907 0.33203 0.23828 0.65234 0.55469 0.75391 9.1719 3.0586 16.648 7.5312 20.711 16.172h-57.066c4.0625-8.6445 11.562-13.113 20.734-16.172 0.30859-0.10156 0.53906-0.40625 0.55469-0.73047 0.15234-3.2031 0.023438-6.1875 0-8.8906zm0.023438 27.406h14.461c-0.11328 3.0664-0.86719 5.2305-2.0156 6.625-1.25 1.5195-2.9766 2.2422-5.2148 2.2422s-3.9648-0.72266-5.2148-2.2422c-1.1484-1.3984-1.9023-3.5586-2.0156-6.625zm-2.2188 13.125-8.0625 8.0625 1.1602 1.1328 8.0625-8.0625zm18.895 0-1.1602 1.1328 8.0625 8.0625 1.1602-1.1328zm-10.254 3.8047v12.898h1.6133v-12.898z"/>
</svg>
