<?xml version="1.0" encoding="UTF-8"?>
<svg width="128pt" height="128pt" version="1.1" viewBox="0 0 128 128" xmlns="http://www.w3.org/2000/svg">
 <g>
  <path d="m112.48 84.691v-14.477c0-2.4766-0.98438-4.8516-2.7344-6.6016s-4.125-2.7344-6.5977-2.7344h-78.297c-5.1523 0-9.332 4.1797-9.332 9.3359v14.48-0.003906c-5.043 0.59766-8.8477 4.8711-8.8516 9.9492v22.691c0 0.35547 0.14062 0.69531 0.39062 0.94531s0.58594 0.39062 0.94141 0.39062h112c0.35547 0 0.69141-0.14062 0.94141-0.39062s0.39062-0.58984 0.39062-0.94531v-22.691c-0.027343-5.0703-3.8203-9.332-8.8516-9.9492zm-88.32 31.309h-14.828v-21.332c0-4.0938 3.3203-7.4141 7.4141-7.4141s7.4141 3.3203 7.4141 7.4141zm77.012 0h-74.344v-13.332h74.344zm-65.68-16v-14.105c0-0.73828 0.59766-1.3359 1.3359-1.3359h17.012c0.35547 0 0.69141 0.14062 0.94141 0.39062s0.39062 0.58984 0.39062 0.94531v14.105zm37.332 0 0.003906-14.105c0-0.73828 0.59375-1.3359 1.332-1.3359h17.012c0.35547 0 0.69531 0.14062 0.94531 0.39062s0.39062 0.58984 0.39062 0.94531v14.105zm29.945-10.668h0.003907c-0.20313 0.31641-0.38281 0.64453-0.53516 0.98828-0.12109 0.21484-0.22656 0.4375-0.31641 0.66797-0.15625 0.38672-0.28125 0.78906-0.375 1.1992 0 0.1875 0 0.39844-0.1875 0.61328-0.11719 0.63281-0.17969 1.2734-0.1875 1.918v5.332l-6 0.003907v-14.16c0-2.2109-1.7891-4-4-4h-17.012c-2.2109 0-4 1.7891-4 4v14.105h-12.32v-14.105c0-2.2109-1.7891-4-4-4h-17.012c-2.2109 0-4 1.7891-4 4v14.105h-6v-5.332c-0.007813-0.64453-0.070313-1.2891-0.1875-1.9219 0-0.21484-0.13281-0.39844-0.1875-0.58594-0.097656-0.42578-0.21875-0.84375-0.375-1.2539l-0.29297-0.58594c-0.16016-0.37109-0.35938-0.73047-0.58594-1.0664-0.10938-0.17969-0.23438-0.35156-0.37109-0.50781-0.24609-0.36328-0.52344-0.69922-0.82812-1.0117l-0.39844-0.375c-0.32812-0.32812-0.68359-0.62109-1.0664-0.87891-0.11328-0.10547-0.24219-0.19531-0.375-0.26562-0.41797-0.27344-0.85547-0.51172-1.3086-0.72266l-0.31641-0.16016c-0.47656-0.19141-0.96875-0.33984-1.4688-0.45312h-0.87891v-14.664c0-3.6836 2.9844-6.668 6.6641-6.668h78.297c1.7656 0 3.4609 0.70312 4.7109 1.9531s1.9531 2.9453 1.9531 4.7148v14.453c-0.125-0.015625-0.25-0.015625-0.37109 0l-0.80078 0.1875-1.0117 0.34766-0.003906-0.003906c-0.25391 0.089843-0.50391 0.19922-0.74609 0.32031l-0.90625 0.50781-0.69141 0.45312-0.80078 0.66797-0.55859 0.55859c-0.25391 0.25781-0.48828 0.53125-0.69531 0.82812-0.16797 0.22656-0.32031 0.46875-0.45312 0.71875zm16 26.668h-14.93v-21.332c0-4.0938 3.3203-7.4141 7.4141-7.4141s7.4141 3.3203 7.4141 7.4141z"/>
  <path d="m34.293 50.668h59.414c2.207 0 4-1.793 4-4v-33.336c0-2.207-1.793-4-4-4h-59.414c-2.207 0-4 1.793-4 4v33.227c-0.027344 1.082 0.37891 2.125 1.1328 2.8984 0.75391 0.77344 1.7891 1.2109 2.8672 1.2109zm-1.332-37.332v-0.003907c0-0.73438 0.59766-1.332 1.332-1.332h59.414c0.35156 0 0.69141 0.14062 0.94141 0.39062s0.39062 0.58984 0.39062 0.94141v33.227c0 0.35547-0.14062 0.69531-0.39062 0.94531s-0.58984 0.39062-0.94141 0.39062h-59.414c-0.73438 0-1.332-0.59766-1.332-1.3359z"/>
  <path d="m36.027 43.922v0.23828c0.027344 0.070313 0.074218 0.13672 0.13281 0.1875 0.046875 0.082032 0.10938 0.15625 0.1875 0.21094 0.21094 0.14844 0.46094 0.23047 0.71875 0.24219h53.602c0.73047-0.015625 1.3164-0.60547 1.332-1.3359v-27.117c0-0.35547-0.14062-0.69531-0.39062-0.94531s-0.58984-0.39062-0.94141-0.39062h-53.336c-0.73438 0-1.332 0.59766-1.332 1.3359v27.227c-0.011719 0.11719-0.003906 0.23438 0.027344 0.34766zm3.9727-1.6836 10.508-13.922 16 13.922zm49.414 0h-18.934l-9.7617-8.5352 11.281-8.4219 17.332 10.535zm-50.668-24.559h50.668v15.012l-16.746-10.156c-0.45703-0.29297-1.0391-0.29297-1.4961 0l-12.504 9.4648-7.4961-6.6133c-0.27734-0.24609-0.64453-0.36328-1.0117-0.32031-0.37109 0.027344-0.71094 0.21094-0.93359 0.50781l-10.668 14.027z"/>
 </g>
</svg>
