<?xml version="1.0" encoding="UTF-8"?>
<svg width="128pt" height="128pt" version="1.1" viewBox="0 0 128 128" xmlns="http://www.w3.org/2000/svg">
 <path d="m64 41.43c-1.7812 0-3.2227 1.4453-3.2227 3.2227v16.121h-16.121c-1.7812 0-3.2227 1.4453-3.2227 3.2227 0 1.7812 1.4453 3.2227 3.2227 3.2227h16.121v16.121c0 1.7812 1.4453 3.2227 3.2227 3.2227 1.7812 0 3.2227-1.4453 3.2227-3.2227v-16.121h16.121c1.7812 0 3.2227-1.4453 3.2227-3.2227 0-1.7812-1.4453-3.2227-3.2227-3.2227h-16.121v-16.121c0-1.7812-1.4453-3.2227-3.2227-3.2227z"/>
</svg>
