<?xml version="1.0" encoding="UTF-8"?>
<svg width="128pt" height="128pt" version="1.1" viewBox="0 0 128 128" xmlns="http://www.w3.org/2000/svg">
 <g>
  <path d="m78.504 75.152c-0.41797 0.32812-0.49219 0.92969-0.16797 1.3477 0.1875 0.24219 0.47266 0.37109 0.75781 0.37109 0.20703 0 0.41406-0.066406 0.58984-0.20312 1.4102-1.0977 2.1719-2.375 2.2617-3.793 0.14063-2.2305-1.4961-3.9023-1.6211-4.0234-1.2383-1.0703-1.8828-2.1953-1.918-3.3477-0.046875-1.75 1.3203-3.0977 1.3477-3.1211 0.38281-0.36328 0.39844-0.96875 0.035156-1.3555-0.36328-0.38672-0.97266-0.40234-1.3555-0.039063-0.082032 0.078125-2.0039 1.9258-1.9453 4.543 0.039063 1.7227 0.90625 3.332 2.5273 4.7227 0.011719 0.011719 1.0977 1.1445 1.0117 2.5-0.050782 0.84375-0.56641 1.6484-1.5234 2.3984z"/>
  <path d="m84.758 60.152c-0.41797 0.32812-0.49219 0.92969-0.16797 1.3477 0.1875 0.24219 0.47266 0.37109 0.75781 0.37109 0.20703 0 0.41406-0.066406 0.58984-0.20312 1.4102-1.0977 2.1719-2.375 2.2617-3.793 0.14062-2.2305-1.4961-3.9023-1.6211-4.0234-1.2383-1.0703-1.8828-2.1953-1.918-3.3477-0.046875-1.7383 1.3047-3.082 1.3477-3.1211 0.38281-0.36328 0.39844-0.96875 0.035157-1.3555-0.36328-0.38672-0.97266-0.40234-1.3555-0.039063-0.082031 0.078125-2.0039 1.9258-1.9453 4.543 0.039062 1.7227 0.91016 3.332 2.5273 4.7227 0.011719 0.011719 1.0977 1.1445 1.0117 2.5-0.050781 0.84375-0.5625 1.6523-1.5234 2.3984z"/>
  <path d="m41.887 102.94c-0.51562 0.11719-0.83984 0.63281-0.72266 1.1484 0.17188 0.75 0.25781 1.543 0.25781 2.3555 0 3.7656-1.7578 6.293-3.3984 6.293-1.6406 0-3.3984-2.5273-3.3984-6.293 0-0.19922 0.003906-0.39844 0.015625-0.59375 0.027344-0.53125-0.37891-0.98047-0.90625-1.0078-0.51953-0.007812-0.98047 0.37891-1.0078 0.90625-0.011718 0.22656-0.019531 0.46094-0.019531 0.69531 0 4.6055 2.3359 8.2148 5.3203 8.2148s5.3203-3.6094 5.3203-8.2148c0-0.95703-0.10156-1.8945-0.30469-2.7812-0.125-0.51562-0.63672-0.83594-1.1562-0.72266z"/>
  <path d="m53.98 102.9c-0.51562 0.12109-0.83984 0.63672-0.71875 1.1523 0.17578 0.76172 0.26562 1.5664 0.26562 2.3945 0 3.7656-1.7578 6.293-3.3984 6.293s-3.3984-2.5273-3.3984-6.293c0-0.86719 0.097656-1.707 0.28906-2.5 0.125-0.51562-0.19141-1.0352-0.70312-1.1602-0.51953-0.125-1.0352 0.19141-1.1602 0.70313-0.23047 0.94141-0.34375 1.9336-0.34375 2.9531 0 4.6055 2.3359 8.2148 5.3203 8.2148 2.9844 0 5.3203-3.6094 5.3203-8.2148 0-0.97656-0.10547-1.9258-0.31641-2.8281-0.125-0.51172-0.63672-0.83203-1.1562-0.71484z"/>
  <path d="m96.258 87.27h17.621c0.53125 0 0.96094-0.42969 0.96094-0.96094s-0.42969-0.96094-0.96094-0.96094l-17.621 0.003906v-3.9492c0-0.53125-0.42969-0.96094-0.96094-0.96094h-5.2422c0.40234-0.65234 0.63281-1.3438 0.67969-2.0742 0.14062-2.2305-1.4961-3.9023-1.6211-4.0234-1.2383-1.0703-1.8828-2.1953-1.918-3.3477-0.046874-1.75 1.3242-3.0977 1.3477-3.1211 0.38281-0.36328 0.39844-0.96875 0.035156-1.3555s-0.97266-0.40234-1.3555-0.039062c-0.082031 0.078125-2.0039 1.9258-1.9453 4.543 0.039062 1.7227 0.91016 3.332 2.5273 4.7227 0.011718 0.011718 1.0977 1.1445 1.0117 2.5-0.046875 0.76953-0.5 1.5039-1.3008 2.1953h-15.406c-0.53125 0-0.96094 0.42969-0.96094 0.96094v3.9492h-4.2266c-0.32422-2.707-1.8984-4-2.832-4.5352l0.003906-22.414c-0.042969-2.3906-0.80469-4.2969-2.2734-5.668-2.5078-2.3438-6.1406-2.1875-6.2773-2.1758-4.1289 0.15234-5.9336-1.293-6.4609-1.8281v-4.4492c3.4648-2.3672 5.7969-6.9844 5.75-12.266 0-0.12109-0.011719-0.23828-0.015625-0.35547 2.0586-0.67969 2.1211-2.293 2.1211-2.293 1.1875-11.484-8.6719-17.152-8.7891-17.219-0.94141-0.50391-1.9297-0.57031-2.8594-0.18359-1.4062 0.57812-2.4453 2.0938-3.125 3.4297-4.2656 0.79297-6.6289 2.7812-6.6641 2.8203-2.3047 1.668-2.5508 3.8477-2.5273 4.8477-1.7305 1.7734-2.5273 3.5625-2.3711 5.3242 0.17969 1.9961 1.5391 3.2695 2.1055 3.7227v0.11328c0.050781 5.3789 2.5625 10.016 6.1758 12.273v4.2344c-0.53906 0.54688-2.3711 1.9805-6.4492 1.8281-0.15625-0.011719-3.7852-0.16797-6.2891 2.1758-1.4688 1.3711-2.2305 3.2773-2.2734 5.6836v22.375c-0.92969 0.52344-2.5352 1.8203-2.8633 4.5547h-6.8867c-0.53125 0-0.96094 0.42969-0.96094 0.96094s0.42969 0.96094 0.96094 0.96094h7.4922c0.09375 0.03125 0.1875 0.058594 0.28906 0.058594h6.2344v3.7617h-14.016c-0.53125 0-0.96094 0.42969-0.96094 0.96094s0.42969 0.96094 0.96094 0.96094h5.6094v18.668c0 0.53125 0.42969 0.96094 0.96094 0.96094s0.96094-0.42969 0.96094-0.96094l-0.003906-18.668h2.8906v18.668c0 0.53125 0.42969 0.96094 0.96094 0.96094s0.96094-0.42969 0.96094-0.96094l-0.003907-18.668h1.6758v9.7695c0 0.53125 0.42969 0.96094 0.96094 0.96094h7.3867c0.45312 0 0.84766-0.31641 0.9375-0.76172l0.23047-1.0938h20.477c0.53125 0 0.96094-0.42969 0.96094-0.96094v-7.9141h12.059v18.668c0 0.53125 0.42969 0.96094 0.96094 0.96094h23.188c0.53125 0 0.96094-0.42969 0.96094-0.96094l0.003906-18.668h17.621c0.53125 0 0.96094-0.42969 0.96094-0.96094s-0.42969-0.96094-0.96094-0.96094h-17.621zm-23.188-4.9102h21.266v4.668h-21.266zm-38.664-58.012c0.015625-0.011718 0.035156-0.015625 0.050781-0.027344 0.61328-0.50781 1.7109-1.2734 2.2383-1.3945 0.51563-0.11719 0.83984-0.63281 0.72266-1.1484-0.11719-0.51562-0.63281-0.84375-1.1484-0.72266-0.33594 0.078124-0.70703 0.24219-1.0703 0.4375 0.25391-0.57031 0.69922-1.2031 1.4883-1.7773 0.019531-0.015625 1.6172-1.3594 4.5703-2.1562-0.019531 0.066406-0.039062 0.12109-0.046874 0.15234-0.15625 0.50781 0.12891 1.043 0.63672 1.1992 0.50391 0.15625 1.043-0.12891 1.1992-0.63672 0.30078-0.98047 1.4961-3.9219 2.9727-4.5312 0.39844-0.16406 0.78516-0.13281 1.207 0.09375 0.089844 0.050781 8.8594 5.0898 7.7969 15.375-0.015626 0.10937-0.12109 0.26953-0.34375 0.42187-0.90625-5.7305-7.7812-11.246-8.0977-11.496-0.41406-0.32812-1.0195-0.25781-1.3477 0.15625-0.32812 0.41406-0.25781 1.0195 0.15625 1.3477 0.0625 0.046875 5.0586 4.0508 6.8438 8.375-1.5742-1.3867-3.7891-3.1523-6.2109-4.5352-0.011719-0.007813-0.023438-0.011719-0.035157-0.019531-1.8477-1.0508-3.8086-1.875-5.6953-2.1211-0.51953-0.066406-1.0078 0.30078-1.0781 0.82812-0.070313 0.52734 0.30078 1.0078 0.82812 1.0781 0.97656 0.12891 1.9922 0.45312 3.0039 0.89062-4.1172 1.6992-8.0469 4.8242-9.5586 6.1016-0.40234-0.42578-0.89844-1.1172-0.98047-2.0156-0.10156-1.1992 0.53906-2.5 1.8984-3.875zm0.21875 7.8555c0-0.14062 0-0.27734 0.003906-0.41797 1.5117-1.2812 6.3281-5.1484 10.77-6.457 3.4492 2.043 6.5 4.9375 7.4805 5.9062 0.015625 0.26172 0.03125 0.52734 0.035156 0.79297 0.0625 6.5742-3.9922 11.961-9.0312 12.008h-0.066406c-5.0156 0.007813-9.1328-5.2852-9.1914-11.832zm-9.4883 50.105c0.011719-0.003906 0.019531-0.011719 0.03125-0.019532 0.0625-0.023437 0.11719-0.0625 0.17578-0.10156 0.046875-0.03125 0.10156-0.058594 0.14062-0.097656 0.042969-0.039063 0.074219-0.09375 0.10938-0.14062 0.039062-0.050781 0.078125-0.097657 0.10547-0.15625 0.023437-0.050781 0.03125-0.10547 0.042969-0.16016 0.019531-0.066406 0.039062-0.13281 0.042968-0.20312 0-0.011719 0.007813-0.023438 0.007813-0.039063v-22.965c0.03125-1.8477 0.58984-3.2891 1.6523-4.2891 1.9023-1.7852 4.8633-1.6719 4.9062-1.6719 6.0898 0.21484 8.1953-2.7188 8.2812-2.8438 0.10938-0.16016 0.17188-0.35156 0.17188-0.54688v-3.6562c0.96094 0.33984 1.9688 0.53516 3.0117 0.53516h0.082032c1.1367-0.011719 2.2344-0.23828 3.2656-0.64844v3.7734c0 0.19531 0.058594 0.38672 0.17188 0.54688 0.085937 0.125 2.1914 3.0742 8.293 2.8438 0.03125 0.003906 2.9922-0.11328 4.8945 1.6719 1.0664 1 1.6211 2.4414 1.6523 4.2734v22.863c-0.054687 0.44141 0.1875 0.875 0.62109 1.0273 0.082031 0.027343 1.7969 0.66797 2.1914 3.043h-5.8945v-4.9805c0-0.53125-0.42969-0.96094-0.96094-0.96094l-1.0977 0.003906v-22.188c0-0.53125-0.42969-0.96094-0.96094-0.96094h-24.535c-0.53125 0-0.96094 0.42969-0.96094 0.96094v22.188h-1.4844c-0.53125 0-0.96094 0.42969-0.96094 0.96094v4.9805h-5.1875c0.39453-2.3633 2.0977-3.0078 2.1914-3.043zm21.238-2.8984c3.3359-4.8008 6.0469-17.055 6.8984-21.23h1.8438v21.23zm-5.1836 0h-8.6914v-21.227h18.809c-1.793 8.6602-5.1289 20.25-7.5391 21.23zm-11.137 22.41v-20.488h9.9531l-1.3086 6.2305-2.9961 14.258zm27.117-1.8555h-19.117l0.85937-4.0898 3.0547-14.543h15.199v10.719zm1.918-8.875v-3.7617h6.9414c0.10156 0 0.19531-0.027344 0.28906-0.058594h4.832v3.8203zm35.246 19.629h-3.5938v-10.398c0-0.53125-0.42969-0.96094-0.96094-0.96094s-0.96094 0.42969-0.96094 0.96094v10.398h-10.238v-18.668c0-0.53125-0.42969-0.96094-0.96094-0.96094s-0.96094 0.42969-0.96094 0.96094v18.668h-3.5938l0.003906-18.668v-3.1016h9.6719v14.93c0 0.53125 0.42969 0.96094 0.96094 0.96094s0.96094-0.42969 0.96094-0.96094v-14.93h4.1602v4.9883c0 0.53125 0.42969 0.96094 0.96094 0.96094s0.96094-0.42969 0.96094-0.96094v-4.9883h3.5938v3.1016z"/>
  <path d="m107.84 32.012h-45.402c-0.53125 0-0.96094 0.42969-0.96094 0.96094s0.42969 0.96094 0.96094 0.96094h45.402c0.53125 0 0.96094-0.42969 0.96094-0.96094s-0.42969-0.96094-0.96094-0.96094z"/>
  <path d="m78.582 43.969c0-0.53125-0.42969-0.96094-0.96094-0.96094h-23.684c-0.53125 0-0.96094 0.42969-0.96094 0.96094s0.42969 0.96094 0.96094 0.96094h23.688c0.52734 0 0.95703-0.42969 0.95703-0.96094z"/>
  <path d="m25.82 43.969c0 0.53125 0.42969 0.96094 0.96094 0.96094h6.9023c0.53125 0 0.96094-0.42969 0.96094-0.96094s-0.42969-0.96094-0.96094-0.96094h-6.9023c-0.53125 0-0.96094 0.42969-0.96094 0.96094z"/>
  <path d="m102.89 55.992c0-0.53125-0.42969-0.96094-0.96094-0.96094h-10.789c-0.53125 0-0.96094 0.42969-0.96094 0.96094s0.42969 0.96094 0.96094 0.96094h10.789c0.53125 0 0.96094-0.43359 0.96094-0.96094z"/>
  <path d="m82.34 55.992c0-0.53125-0.42969-0.96094-0.96094-0.96094h-12.402c-0.53125 0-0.96094 0.42969-0.96094 0.96094s0.42969 0.96094 0.96094 0.96094h12.402c0.53125 0 0.96094-0.43359 0.96094-0.96094z"/>
  <path d="m92.328 70.449h15.512c0.53125 0 0.96094-0.42969 0.96094-0.96094s-0.42969-0.96094-0.96094-0.96094h-15.512c-0.53125 0-0.96094 0.42969-0.96094 0.96094s0.42969 0.96094 0.96094 0.96094z"/>
 </g>
</svg>
